# Project: Eldoran
# Copyright (C) 2026 WinManApple
#
# This work is licensed under the Creative Commons Attribution-NonCommercial-ShareAlike
# 4.0 International License. To view a copy of this license, visit
# http://creativecommons.org/licenses/by-nc-sa/4.0/

# Project: Eldoran
# Copyright (C) 2026 WinManApple
#
# This work is licensed under the Creative Commons Attribution-NonCommercial-ShareAlike
# 4.0 International License. To view a copy of this license, visit
# http://creativecommons.org/licenses/by-nc-sa/4.0/


mtllib castle_tower.mtl
o castle_tower
v 0.899705 0.000000 0.000000
v 0.831227 0.000000 0.344312
v 0.636191 0.000000 0.636191
v 0.344312 0.000000 0.831227
v 0.000000 0.000000 0.899705
v -0.344312 0.000000 0.831227
v -0.636191 0.000000 0.636191
v -0.831227 0.000000 0.344312
v -0.899705 0.000000 0.000000
v -0.831227 -0.000000 -0.344312
v -0.636191 -0.000000 -0.636191
v -0.344312 -0.000000 -0.831227
v 0.000000 -0.000000 -0.899705
v 0.344312 -0.000000 -0.831227
v 0.636191 -0.000000 -0.636191
v 0.831227 -0.000000 -0.344312
v 0.749754 0.499836 -0.000000
v 0.692673 0.499836 0.286931
v 0.530151 0.499836 0.530151
v 0.286931 0.499836 0.692673
v 0.000000 0.499836 0.749754
v -0.286931 0.499836 0.692673
v -0.530151 0.499836 0.530151
v -0.692673 0.499836 0.286931
v -0.749754 0.499836 -0.000000
v -0.692673 0.499836 -0.286931
v -0.530151 0.499836 -0.530151
v -0.286931 0.499836 -0.692673
v 0.000000 0.499836 -0.749754
v 0.286931 0.499836 -0.692673
v 0.530151 0.499836 -0.530151
v 0.692673 0.499836 -0.286931
v 0.000000 0.000000 0.000000
v 0.749754 0.499836 -0.000000
v 0.692673 0.499836 0.286931
v 0.530151 0.499836 0.530151
v 0.286931 0.499836 0.692673
v 0.000000 0.499836 0.749754
v -0.286931 0.499836 0.692673
v -0.530151 0.499836 0.530151
v -0.692673 0.499836 0.286931
v -0.749754 0.499836 -0.000000
v -0.692673 0.499836 -0.286931
v -0.530151 0.499836 -0.530151
v -0.286931 0.499836 -0.692673
v 0.000000 0.499836 -0.749754
v 0.286931 0.499836 -0.692673
v 0.530151 0.499836 -0.530151
v 0.692673 0.499836 -0.286931
v 0.674779 2.999016 -0.000000
v 0.623420 2.999016 0.258215
v 0.477143 2.999016 0.477143
v 0.258215 2.999016 0.623420
v 0.000000 2.999016 0.674778
v -0.258215 2.999016 0.623420
v -0.477143 2.999016 0.477143
v -0.623420 2.999016 0.258215
v -0.674779 2.999016 -0.000000
v -0.623420 2.999016 -0.258216
v -0.477143 2.999016 -0.477144
v -0.258215 2.999016 -0.623421
v 0.000000 2.999016 -0.674779
v 0.258215 2.999016 -0.623421
v 0.477143 2.999016 -0.477144
v 0.623420 2.999016 -0.258216
v 0.674779 2.999016 -0.000000
v 0.623420 2.999016 0.258215
v 0.477143 2.999016 0.477143
v 0.258215 2.999016 0.623420
v 0.000000 2.999016 0.674778
v -0.258215 2.999016 0.623420
v -0.477143 2.999016 0.477143
v -0.623420 2.999016 0.258215
v -0.674779 2.999016 -0.000000
v -0.623420 2.999016 -0.258216
v -0.477143 2.999016 -0.477144
v -0.258215 2.999016 -0.623421
v 0.000000 2.999016 -0.674779
v 0.258215 2.999016 -0.623421
v 0.477143 2.999016 -0.477144
v 0.623420 2.999016 -0.258216
v 0.999672 3.248934 -0.000000
v 0.923572 3.248934 0.382549
v 0.706868 3.248934 0.706868
v 0.382549 3.248934 0.923572
v 0.000000 3.248934 0.999672
v -0.382549 3.248934 0.923572
v -0.706868 3.248934 0.706868
v -0.923572 3.248934 0.382549
v -0.999672 3.248934 -0.000000
v -0.923572 3.248934 -0.382550
v -0.706868 3.248934 -0.706868
v -0.382549 3.248934 -0.923572
v 0.000000 3.248934 -0.999672
v 0.382549 3.248934 -0.923572
v 0.706868 3.248934 -0.706868
v 0.923572 3.248934 -0.382550
v 0.999672 3.248934 -0.000000
v 0.923572 3.248934 0.382549
v 0.706868 3.248934 0.706868
v 0.382549 3.248934 0.923572
v 0.000000 3.248934 0.999672
v -0.382549 3.248934 0.923572
v -0.706868 3.248934 0.706868
v -0.923572 3.248934 0.382549
v -0.999672 3.248934 -0.000000
v -0.923572 3.248934 -0.382550
v -0.706868 3.248934 -0.706868
v -0.382549 3.248934 -0.923572
v 0.000000 3.248934 -0.999672
v 0.382549 3.248934 -0.923572
v 0.706868 3.248934 -0.706868
v 0.923572 3.248934 -0.382550
v 0.999672 3.298917 -0.000000
v 0.923572 3.298917 0.382549
v 0.706868 3.298917 0.706868
v 0.382549 3.298917 0.923572
v 0.000000 3.298917 0.999672
v -0.382549 3.298917 0.923572
v -0.706868 3.298917 0.706868
v -0.923572 3.298917 0.382549
v -0.999672 3.298917 -0.000000
v -0.923572 3.298917 -0.382550
v -0.706868 3.298917 -0.706868
v -0.382549 3.298917 -0.923572
v 0.000000 3.298917 -0.999672
v 0.382549 3.298917 -0.923572
v 0.706868 3.298917 -0.706868
v 0.923572 3.298917 -0.382550
v 0.000000 3.298917 -0.000000
v 0.741082 3.248934 0.085547
v 1.023739 3.248934 0.085547
v 1.023739 3.248934 0.265488
v 0.741082 3.248934 0.265488
v 0.741082 3.498852 0.085547
v 1.023739 3.498852 0.085547
v 1.023739 3.498852 0.265488
v 0.741082 3.498852 0.265488
v 0.358532 3.248934 0.658109
v 0.641165 3.248934 0.658109
v 0.641165 3.248934 0.838050
v 0.358532 3.248934 0.838050
v 0.358532 3.498852 0.658109
v 0.641165 3.498852 0.658109
v 0.641165 3.498852 0.838050
v 0.358532 3.498852 0.838050
v -0.316846 3.248934 0.792440
v -0.034189 3.248934 0.792440
v -0.034189 3.248934 0.972381
v -0.316846 3.248934 0.972381
v -0.316846 3.498852 0.792440
v -0.034189 3.498852 0.792440
v -0.034189 3.498852 0.972381
v -0.316846 3.498852 0.972381
v -0.889408 3.248934 0.409890
v -0.606751 3.248934 0.409890
v -0.606751 3.248934 0.589831
v -0.889408 3.248934 0.589831
v -0.889408 3.498852 0.409890
v -0.606751 3.498852 0.409890
v -0.606751 3.498852 0.589831
v -0.889408 3.498852 0.589831
v -1.023739 3.248934 -0.265488
v -0.741082 3.248934 -0.265488
v -0.741082 3.248934 -0.085547
v -1.023739 3.248934 -0.085547
v -1.023739 3.498852 -0.265488
v -0.741082 3.498852 -0.265488
v -0.741082 3.498852 -0.085547
v -1.023739 3.498852 -0.085547
v -0.641165 3.248934 -0.838050
v -0.358532 3.248934 -0.838050
v -0.358532 3.248934 -0.658109
v -0.641165 3.248934 -0.658109
v -0.641165 3.498852 -0.838050
v -0.358532 3.498852 -0.838050
v -0.358532 3.498852 -0.658109
v -0.641165 3.498852 -0.658109
v 0.034189 3.248934 -0.972381
v 0.316846 3.248934 -0.972381
v 0.316846 3.248934 -0.792440
v 0.034189 3.248934 -0.792440
v 0.034189 3.498852 -0.972381
v 0.316846 3.498852 -0.972381
v 0.316846 3.498852 -0.792440
v 0.034189 3.498852 -0.792440
v 0.606751 3.248934 -0.589832
v 0.889408 3.248934 -0.589832
v 0.889408 3.248934 -0.409891
v 0.606751 3.248934 -0.409891
v 0.606751 3.498852 -0.589832
v 0.889408 3.498852 -0.589832
v 0.889408 3.498852 -0.409891
v 0.606751 3.498852 -0.409891
v 0.699770 3.248934 -0.000000
v 0.646513 3.248934 0.267787
v 0.494813 3.248934 0.494812
v 0.267787 3.248934 0.646513
v 0.000000 3.248934 0.699770
v -0.267787 3.248934 0.646513
v -0.494813 3.248934 0.494812
v -0.646513 3.248934 0.267787
v -0.699770 3.248934 -0.000000
v -0.646513 3.248934 -0.267787
v -0.494813 3.248934 -0.494813
v -0.267787 3.248934 -0.646513
v 0.000000 3.248934 -0.699771
v 0.267787 3.248934 -0.646513
v 0.494813 3.248934 -0.494813
v 0.646513 3.248934 -0.267787
v 0.000000 4.498524 -0.000000
v 0.000000 4.498524 -0.000000
v 0.000000 4.498524 -0.000000
v 0.000000 4.498524 -0.000000
v 0.000000 4.498524 -0.000000
v 0.000000 4.498524 -0.000000
v 0.000000 4.498524 -0.000000
v 0.000000 4.498524 -0.000000
v 0.000000 4.498524 -0.000000
v 0.000000 4.498524 -0.000000
v 0.000000 4.498524 -0.000000
v 0.000000 4.498524 -0.000000
v 0.000000 4.498524 -0.000000
v 0.000000 4.498524 -0.000000
v 0.000000 4.498524 -0.000000
v 0.000000 4.498524 -0.000000
vn -0.9409 -0.2823 -0.1872
vn -0.7976 -0.2823 -0.5330
vn -0.5330 -0.2823 -0.7976
vn -0.1872 -0.2823 -0.9409
vn 0.1872 -0.2823 -0.9409
vn 0.5330 -0.2823 -0.7976
vn 0.7976 -0.2823 -0.5330
vn 0.9409 -0.2823 -0.1872
vn 0.9409 -0.2823 0.1872
vn 0.7976 -0.2823 0.5330
vn 0.5330 -0.2823 0.7976
vn 0.1872 -0.2823 0.9409
vn -0.1872 -0.2823 0.9409
vn -0.5330 -0.2823 0.7976
vn -0.7976 -0.2823 0.5330
vn -0.9409 -0.2823 0.1872
vn -0.0000 1.0000 -0.0000
vn -0.9804 -0.0294 -0.1950
vn -0.8311 -0.0294 -0.5553
vn -0.5553 -0.0294 -0.8311
vn -0.1950 -0.0294 -0.9804
vn 0.1950 -0.0294 -0.9804
vn 0.5553 -0.0294 -0.8311
vn 0.8311 -0.0294 -0.5553
vn 0.9804 -0.0294 -0.1950
vn 0.9804 -0.0294 0.1950
vn 0.8311 -0.0294 0.5553
vn 0.5553 -0.0294 0.8311
vn 0.1950 -0.0294 0.9804
vn -0.1950 -0.0294 0.9804
vn -0.5553 -0.0294 0.8311
vn -0.8311 -0.0294 0.5553
vn -0.9804 -0.0294 0.1950
vn -0.6053 0.7869 -0.1204
vn -0.5131 0.7868 -0.3429
vn -0.3429 0.7868 -0.5131
vn -0.1204 0.7869 -0.6053
vn 0.1204 0.7869 -0.6053
vn 0.3429 0.7868 -0.5131
vn 0.5131 0.7868 -0.3429
vn 0.6053 0.7869 -0.1204
vn 0.6053 0.7869 0.1204
vn 0.5131 0.7868 0.3429
vn 0.3429 0.7868 0.5131
vn 0.1204 0.7869 0.6053
vn -0.1204 0.7869 0.6053
vn -0.3429 0.7868 0.5131
vn -0.5131 0.7868 0.3429
vn -0.6053 0.7869 0.1204
vn -0.9808 -0.0000 -0.1951
vn -0.8315 -0.0000 -0.5556
vn -0.5556 -0.0000 -0.8315
vn -0.1951 -0.0000 -0.9808
vn 0.1951 -0.0000 -0.9808
vn 0.5556 -0.0000 -0.8315
vn 0.8315 -0.0000 -0.5556
vn 0.9808 -0.0000 -0.1951
vn 0.9808 -0.0000 0.1951
vn 0.8315 -0.0000 0.5556
vn 0.5556 -0.0000 0.8315
vn 0.1951 -0.0000 0.9808
vn -0.1951 -0.0000 0.9808
vn -0.5556 -0.0000 0.8315
vn -0.8315 -0.0000 0.5556
vn -0.9808 -0.0000 0.1951
vn -0.0000 -1.0000 -0.0000
vn -0.0000 -0.0000 1.0000
vn -1.0000 -0.0000 -0.0000
vn -0.0000 -0.0000 -1.0000
vn 1.0000 -0.0000 -0.0000
vn -0.8597 -0.4814 -0.1710
vn -0.7288 -0.4814 -0.4870
vn -0.4870 -0.4814 -0.7288
vn -0.1710 -0.4814 -0.8597
vn 0.1710 -0.4814 -0.8597
vn 0.4870 -0.4814 -0.7288
vn 0.7288 -0.4814 -0.4870
vn 0.8597 -0.4814 -0.1710
vn 0.8597 -0.4814 0.1710
vn 0.7288 -0.4814 0.4870
vn 0.4870 -0.4814 0.7288
vn 0.1710 -0.4814 0.8597
vn -0.1710 -0.4814 0.8597
vn -0.4870 -0.4814 0.7288
vn -0.7288 -0.4814 0.4870
vn -0.8597 -0.4814 0.1710
s 0
f 1//1 2//1 18//1 17//1
f 2//2 3//2 19//2 18//2
f 3//3 4//3 20//3 19//3
f 4//4 5//4 21//4 20//4
f 5//5 6//5 22//5 21//5
f 6//6 7//6 23//6 22//6
f 7//7 8//7 24//7 23//7
f 8//8 9//8 25//8 24//8
f 9//9 10//9 26//9 25//9
f 10//10 11//10 27//10 26//10
f 11//11 12//11 28//11 27//11
f 12//12 13//12 29//12 28//12
f 13//13 14//13 30//13 29//13
f 14//14 15//14 31//14 30//14
f 15//15 16//15 32//15 31//15
f 16//16 1//16 17//16 32//16
f 2//17 1//17 33//17
f 3//17 2//17 33//17
f 4//17 3//17 33//17
f 5//17 4//17 33//17
f 6//17 5//17 33//17
f 7//17 6//17 33//17
f 8//17 7//17 33//17
f 9//17 8//17 33//17
f 10//17 9//17 33//17
f 11//17 10//17 33//17
f 12//17 11//17 33//17
f 13//17 12//17 33//17
f 14//17 13//17 33//17
f 15//17 14//17 33//17
f 16//17 15//17 33//17
f 1//17 16//17 33//17
f 34//18 35//18 51//18 50//18
f 35//19 36//19 52//19 51//19
f 36//20 37//20 53//20 52//20
f 37//21 38//21 54//21 53//21
f 38//22 39//22 55//22 54//22
f 39//23 40//23 56//23 55//23
f 40//24 41//24 57//24 56//24
f 41//25 42//25 58//25 57//25
f 42//26 43//26 59//26 58//26
f 43//27 44//27 60//27 59//27
f 44//28 45//28 61//28 60//28
f 45//29 46//29 62//29 61//29
f 46//30 47//30 63//30 62//30
f 47//31 48//31 64//31 63//31
f 48//32 49//32 65//32 64//32
f 49//33 34//33 50//33 65//33
f 66//34 67//34 83//34 82//34
f 67//35 68//35 84//35 83//35
f 68//36 69//36 85//36 84//36
f 69//37 70//37 86//37 85//37
f 70//38 71//38 87//38 86//38
f 71//39 72//39 88//39 87//39
f 72//40 73//40 89//40 88//40
f 73//41 74//41 90//41 89//41
f 74//42 75//42 91//42 90//42
f 75//43 76//43 92//43 91//43
f 76//44 77//44 93//44 92//44
f 77//45 78//45 94//45 93//45
f 78//46 79//46 95//46 94//46
f 79//47 80//47 96//47 95//47
f 80//48 81//48 97//48 96//48
f 81//49 66//49 82//49 97//49
f 98//50 99//50 115//50 114//50
f 99//51 100//51 116//51 115//51
f 100//52 101//52 117//52 116//52
f 101//53 102//53 118//53 117//53
f 102//54 103//54 119//54 118//54
f 103//55 104//55 120//55 119//55
f 104//56 105//56 121//56 120//56
f 105//57 106//57 122//57 121//57
f 106//58 107//58 123//58 122//58
f 107//59 108//59 124//59 123//59
f 108//60 109//60 125//60 124//60
f 109//61 110//61 126//61 125//61
f 110//62 111//62 127//62 126//62
f 111//63 112//63 128//63 127//63
f 112//64 113//64 129//64 128//64
f 113//65 98//65 114//65 129//65
f 114//66 115//66 130//66
f 115//66 116//66 130//66
f 116//66 117//66 130//66
f 117//66 118//66 130//66
f 118//66 119//66 130//66
f 119//66 120//66 130//66
f 120//66 121//66 130//66
f 121//66 122//66 130//66
f 122//66 123//66 130//66
f 123//66 124//66 130//66
f 124//66 125//66 130//66
f 125//66 126//66 130//66
f 126//66 127//66 130//66
f 127//66 128//66 130//66
f 128//66 129//66 130//66
f 129//66 114//66 130//66
f 131//66 132//66 133//66 134//66
f 135//66 136//66 137//66 138//66
f 131//67 132//67 136//67 135//67
f 132//68 133//68 137//68 136//68
f 133//69 134//69 138//69 137//69
f 134//70 131//70 135//70 138//70
f 139//66 140//66 141//66 142//66
f 143//66 144//66 145//66 146//66
f 139//67 140//67 144//67 143//67
f 140//68 141//68 145//68 144//68
f 141//69 142//69 146//69 145//69
f 142//70 139//70 143//70 146//70
f 147//66 148//66 149//66 150//66
f 151//66 152//66 153//66 154//66
f 147//67 148//67 152//67 151//67
f 148//68 149//68 153//68 152//68
f 149//69 150//69 154//69 153//69
f 150//70 147//70 151//70 154//70
f 155//66 156//66 157//66 158//66
f 159//66 160//66 161//66 162//66
f 155//67 156//67 160//67 159//67
f 156//68 157//68 161//68 160//68
f 157//69 158//69 162//69 161//69
f 158//70 155//70 159//70 162//70
f 163//66 164//66 165//66 166//66
f 167//66 168//66 169//66 170//66
f 163//67 164//67 168//67 167//67
f 164//68 165//68 169//68 168//68
f 165//69 166//69 170//69 169//69
f 166//70 163//70 167//70 170//70
f 171//66 172//66 173//66 174//66
f 175//66 176//66 177//66 178//66
f 171//67 172//67 176//67 175//67
f 172//68 173//68 177//68 176//68
f 173//69 174//69 178//69 177//69
f 174//70 171//70 175//70 178//70
f 179//66 180//66 181//66 182//66
f 183//66 184//66 185//66 186//66
f 179//67 180//67 184//67 183//67
f 180//68 181//68 185//68 184//68
f 181//69 182//69 186//69 185//69
f 182//70 179//70 183//70 186//70
f 187//66 188//66 189//66 190//66
f 191//66 192//66 193//66 194//66
f 187//67 188//67 192//67 191//67
f 188//68 189//68 193//68 192//68
f 189//69 190//69 194//69 193//69
f 190//70 187//70 191//70 194//70
f 195//71 196//71 212//71 211//71
f 196//72 197//72 213//72 212//72
f 197//73 198//73 214//73 213//73
f 198//74 199//74 215//74 214//74
f 199//75 200//75 216//75 215//75
f 200//76 201//76 217//76 216//76
f 201//77 202//77 218//77 217//77
f 202//78 203//78 219//78 218//78
f 203//79 204//79 220//79 219//79
f 204//80 205//80 221//80 220//80
f 205//81 206//81 222//81 221//81
f 206//82 207//82 223//82 222//82
f 207//83 208//83 224//83 223//83
f 208//84 209//84 225//84 224//84
f 209//85 210//85 226//85 225//85
f 210//86 195//86 211//86 226//86
